<svg width="319" height="78" viewBox="0 0 319 78" fill="none" xmlns="http://www.w3.org/2000/svg">
<g clip-path="url(#clip0_1653_196)">
<mask id="mask0_1653_196" style="mask-type:luminance" maskUnits="userSpaceOnUse" x="0" y="0" width="311" height="78">
<path d="M310.62 0H0V77.21H310.62V0Z" fill="white"/>
</mask>
<g mask="url(#mask0_1653_196)">
<path d="M15.8601 26.9297C17.3901 28.5697 18.3301 30.7597 18.3301 33.1697C18.3301 36.2797 16.7701 39.0297 14.3901 40.6797H9.97012C6.55012 40.6797 3.56012 38.0497 3.46012 34.6297C3.35012 31.0897 6.19012 28.1797 9.71012 28.1797H14.8801L15.8601 26.9297Z" fill="url(#paint0_linear_1653_196)"/>
<path d="M76.7106 43.0795L59.6706 64.8995C57.3706 67.8495 54.1706 69.4495 50.8406 69.4495C49.6606 69.4495 48.4706 69.2495 47.2906 68.8395C42.2606 67.1095 38.8806 61.9295 38.8806 55.9495V20.8395C38.8806 19.8295 37.6106 19.3995 36.9906 20.1895L24.5106 36.1595C23.4606 37.5095 22.2006 38.5795 20.7906 39.3395C21.7706 37.4895 22.3306 35.3895 22.3306 33.1695C22.3306 29.4795 20.8006 26.1395 18.3506 23.7395L30.5806 8.0895C33.6906 4.0995 38.4406 2.5895 42.9606 4.1495C47.9906 5.8795 51.3806 11.0595 51.3806 17.0395V52.2895C51.3806 53.2495 52.5906 53.6695 53.1706 52.9095L69.5806 31.8995C70.5206 30.6995 71.6406 29.7095 72.8806 28.9695C72.4306 30.2895 72.1906 31.6995 72.1906 33.1695C72.1906 37.1195 73.9406 40.6695 76.7106 43.0795Z" fill="url(#paint1_linear_1653_196)"/>
<path d="M91.4404 33.4396C91.5504 36.9796 88.7104 39.8797 85.1904 39.8797H79.2104L79.1804 39.9196C77.3404 38.2496 76.1904 35.8396 76.1904 33.1696C76.1904 30.9796 76.9604 28.9696 78.2504 27.3896C78.3304 27.3896 78.4204 27.3896 78.5004 27.3896H84.9304C88.3504 27.3896 91.3404 30.0296 91.4404 33.4496V33.4396Z" fill="url(#paint2_linear_1653_196)"/>
<path d="M18.33 33.169C18.33 36.279 16.77 39.029 14.39 40.679C12.91 41.719 11.11 42.329 9.17 42.329C4.11 42.329 0 38.219 0 33.169C0 28.119 4.11 23.999 9.17 23.999C11.81 23.999 14.2 25.129 15.86 26.929C17.39 28.569 18.33 30.759 18.33 33.169Z" fill="#573BE1"/>
<path d="M94.5104 33.169C94.5104 38.219 90.4004 42.329 85.3504 42.329C82.9704 42.329 80.8104 41.419 79.1804 39.919C77.3404 38.249 76.1904 35.839 76.1904 33.169C76.1904 30.979 76.9604 28.969 78.2504 27.389C79.9304 25.319 82.4904 23.999 85.3504 23.999C90.4004 23.999 94.5104 28.109 94.5104 33.169Z" fill="#9D4CF0"/>
</g>
</g>
<path d="M293.323 58.1801V18.1436H303.881L304.388 22.2824C306.189 21.1562 308.414 20.1426 311.06 19.2416C313.763 18.2844 316.41 17.6368 319 17.299V25.9144C317.48 26.1396 315.818 26.4775 314.017 26.928C312.215 27.3785 310.497 27.8853 308.864 28.4484C307.231 29.0115 305.852 29.6027 304.725 30.2221V58.1801H293.323Z" fill="white"/>
<path d="M268.406 59.0248C261.48 59.0248 255.99 57.3073 251.935 53.8724C247.881 50.3812 245.854 45.1162 245.854 38.0774C245.854 31.7143 247.543 26.6746 250.922 22.9581C254.357 19.1853 259.453 17.299 266.21 17.299C272.404 17.299 277.134 18.9319 280.4 22.1979C283.722 25.4076 285.383 29.6309 285.383 34.8677V42.1317H256.412C257.031 45.3414 258.495 47.5375 260.804 48.72C263.169 49.9025 266.491 50.4938 270.771 50.4938C272.911 50.4938 275.079 50.2967 277.275 49.9025C279.527 49.5084 281.442 49.0016 283.018 48.3822V56.4908C281.16 57.3355 278.992 57.9549 276.515 58.349C274.037 58.7995 271.334 59.0248 268.406 59.0248ZM256.412 35.1211H275.417V32.925C275.417 30.6163 274.741 28.8144 273.389 27.5192C272.038 26.1678 269.757 25.4921 266.548 25.4921C262.775 25.4921 260.128 26.2523 258.608 27.7726C257.144 29.293 256.412 31.7425 256.412 35.1211Z" fill="white"/>
<path d="M197.722 76.4246V18.1436H207.604L208.195 21.8601C209.941 20.396 211.856 19.2698 213.939 18.4815C216.023 17.6931 218.472 17.299 221.288 17.299C227.144 17.299 231.649 18.9038 234.802 22.1135C238.012 25.2668 239.616 30.4474 239.616 37.6551C239.616 44.8628 237.899 50.2404 234.464 53.7879C231.086 57.2792 226.468 59.0248 220.612 59.0248C216.107 59.0248 212.278 58.0112 209.125 55.984V76.4246H197.722ZM217.74 50.6627C221.119 50.6627 223.681 49.621 225.426 47.5375C227.172 45.454 228.045 42.188 228.045 37.7395C228.045 33.46 227.256 30.3911 225.68 28.5328C224.103 26.6183 221.569 25.661 218.078 25.661C214.587 25.661 211.602 26.8717 209.125 29.293V47.622C210.307 48.5229 211.546 49.255 212.841 49.8181C214.192 50.3812 215.825 50.6627 217.74 50.6627Z" fill="white"/>
<path d="M175.681 10.7951V1.8418H188.097V10.7951H175.681ZM176.61 58.1801V26.5901H170.613L171.627 18.1436H188.013V58.1801H176.61Z" fill="white"/>
<path d="M122 58.1802V3.78455H147.508C151.788 3.78455 155.279 4.60105 157.982 6.23404C160.741 7.86704 162.797 10.0913 164.148 12.9068C165.5 15.7223 166.175 18.932 166.175 22.5358C166.175 26.196 165.387 29.4338 163.81 32.2493C162.29 35.0648 160.094 37.2609 157.222 38.8376C154.406 40.358 151.056 41.1182 147.171 41.1182H133.403V58.1802H122ZM133.403 32.0804H144.806C148.072 32.0804 150.521 31.2357 152.154 29.5464C153.843 27.8008 154.688 25.464 154.688 22.5358C154.688 19.3825 153.9 16.9893 152.323 15.3563C150.746 13.667 148.381 12.8223 145.228 12.8223H133.403V32.0804Z" fill="white"/>
<defs>
<linearGradient id="paint0_linear_1653_196" x1="3.46012" y1="33.8097" x2="18.3301" y2="33.8097" gradientUnits="userSpaceOnUse">
<stop stop-color="#573BE1"/>
<stop offset="1" stop-color="#9D4CF0"/>
</linearGradient>
<linearGradient id="paint1_linear_1653_196" x1="18.3506" y1="36.4995" x2="76.7106" y2="36.4995" gradientUnits="userSpaceOnUse">
<stop stop-color="#573BE1"/>
<stop offset="1" stop-color="#9D4CF0"/>
</linearGradient>
<linearGradient id="paint2_linear_1653_196" x1="76.1904" y1="33.6496" x2="91.4404" y2="33.6496" gradientUnits="userSpaceOnUse">
<stop stop-color="#573BE1"/>
<stop offset="1" stop-color="#9D4CF0"/>
</linearGradient>
<clipPath id="clip0_1653_196">
<rect width="95" height="78" fill="white"/>
</clipPath>
</defs>
</svg>
